<svg width="2044" height="650" viewBox="0 0 2044 650" fill="none" xmlns="http://www.w3.org/2000/svg">
<rect width="2044" height="650" rx="20" fill="#202830"/>
<g clip-path="url(#clip0_920_130)">
<rect x="85" y="86" width="503.82" height="503.82" rx="63.9616" fill="#010B19"/>
<rect x="189.797" y="375.797" width="307.016" height="6.39616" rx="3.19808" fill="#00FF92"/>
<rect x="160.773" y="428.438" width="307.016" height="6.39616" rx="3.19808" fill="#00FF92"/>
<rect x="209.477" y="481.086" width="307.016" height="6.39616" rx="3.19808" fill="#00FF92"/>
<path d="M173.238 318.625L254.42 237.607L173.566 156.917H225.063L306.409 237.607L225.227 318.625H173.238Z" fill="#00FF92"/>
</g>
<path d="M680.935 278V87.4473H708.755V158.253H710.429C712.042 155.276 714.368 151.833 717.408 147.925C720.447 144.018 724.665 140.606 730.062 137.691C735.458 134.713 742.591 133.225 751.462 133.225C762.999 133.225 773.296 136.14 782.352 141.971C791.408 147.801 798.511 156.206 803.659 167.185C808.869 178.165 811.475 191.377 811.475 206.822C811.475 222.267 808.9 235.51 803.752 246.551C798.604 257.53 791.532 265.997 782.538 271.952C773.544 277.845 763.278 280.791 751.741 280.791C743.057 280.791 735.954 279.334 730.434 276.418C724.975 273.503 720.695 270.091 717.594 266.183C714.492 262.276 712.104 258.802 710.429 255.763H708.103V278H680.935ZM708.196 206.543C708.196 216.591 709.654 225.4 712.569 232.967C715.485 240.535 719.703 246.458 725.223 250.738C730.744 254.956 737.505 257.065 745.507 257.065C753.819 257.065 760.766 254.863 766.349 250.459C771.931 245.993 776.149 239.945 779.002 232.316C781.918 224.686 783.375 216.095 783.375 206.543C783.375 197.114 781.949 188.647 779.095 181.142C776.304 173.636 772.086 167.713 766.442 163.371C760.859 159.029 753.881 156.858 745.507 156.858C737.443 156.858 730.62 158.936 725.037 163.091C719.517 167.247 715.33 173.047 712.476 180.491C709.623 187.934 708.196 196.618 708.196 206.543ZM892.432 280.884C879.034 280.884 867.342 277.814 857.355 271.673C847.368 265.532 839.615 256.941 834.094 245.9C828.574 234.859 825.813 221.957 825.813 207.194C825.813 192.369 828.574 179.405 834.094 168.302C839.615 157.199 847.368 148.577 857.355 142.436C867.342 136.295 879.034 133.225 892.432 133.225C905.831 133.225 917.523 136.295 927.51 142.436C937.496 148.577 945.25 157.199 950.771 168.302C956.291 179.405 959.052 192.369 959.052 207.194C959.052 221.957 956.291 234.859 950.771 245.9C945.25 256.941 937.496 265.532 927.51 271.673C917.523 277.814 905.831 280.884 892.432 280.884ZM892.526 257.53C901.21 257.53 908.405 255.235 914.112 250.645C919.818 246.055 924.036 239.945 926.765 232.316C929.557 224.686 930.952 216.281 930.952 207.101C930.952 197.983 929.557 189.609 926.765 181.979C924.036 174.288 919.818 168.116 914.112 163.464C908.405 158.811 901.21 156.485 892.526 156.485C883.779 156.485 876.522 158.811 870.753 163.464C865.047 168.116 860.798 174.288 858.006 181.979C855.277 189.609 853.913 197.983 853.913 207.101C853.913 216.281 855.277 224.686 858.006 232.316C860.798 239.945 865.047 246.055 870.753 250.645C876.522 255.235 883.779 257.53 892.526 257.53ZM1007.44 87.4473V278H979.624V87.4473H1007.44ZM1075.98 281.163C1066.92 281.163 1058.74 279.489 1051.42 276.139C1044.1 272.728 1038.3 267.796 1034.02 261.345C1029.8 254.894 1027.69 246.986 1027.69 237.619C1027.69 229.555 1029.24 222.918 1032.34 217.708C1035.45 212.497 1039.63 208.373 1044.9 205.333C1050.18 202.294 1056.07 199.999 1062.58 198.448C1069.1 196.897 1075.73 195.719 1082.49 194.912C1091.05 193.92 1098 193.113 1103.34 192.493C1108.67 191.811 1112.55 190.725 1114.97 189.237C1117.39 187.748 1118.59 185.329 1118.59 181.979V181.328C1118.59 173.202 1116.3 166.906 1111.71 162.44C1107.18 157.974 1100.42 155.741 1091.43 155.741C1082.06 155.741 1074.68 157.819 1069.28 161.975C1063.95 166.069 1060.26 170.628 1058.21 175.652L1032.06 169.698C1035.17 161.014 1039.69 154.004 1045.65 148.67C1051.67 143.273 1058.58 139.365 1066.4 136.946C1074.21 134.465 1082.43 133.225 1091.05 133.225C1096.76 133.225 1102.81 133.907 1109.2 135.272C1115.65 136.574 1121.67 138.993 1127.25 142.529C1132.89 146.065 1137.51 151.12 1141.11 157.695C1144.71 164.208 1146.51 172.675 1146.51 183.096V278H1119.34V258.461H1118.22C1116.42 262.059 1113.73 265.594 1110.13 269.068C1106.53 272.541 1101.91 275.426 1096.26 277.721C1090.62 280.016 1083.86 281.163 1075.98 281.163ZM1082.03 258.833C1089.72 258.833 1096.3 257.313 1101.75 254.274C1107.27 251.235 1111.46 247.265 1114.31 242.364C1117.23 237.402 1118.69 232.099 1118.69 226.454V208.031C1117.7 209.024 1115.77 209.954 1112.92 210.823C1110.13 211.629 1106.93 212.342 1103.34 212.963C1099.74 213.521 1096.23 214.048 1092.82 214.544C1089.41 214.979 1086.56 215.351 1084.26 215.661C1078.87 216.343 1073.93 217.491 1069.47 219.104C1065.06 220.716 1061.53 223.042 1058.86 226.082C1056.26 229.059 1054.95 233.029 1054.95 237.991C1054.95 244.877 1057.5 250.087 1062.58 253.623C1067.67 257.096 1074.15 258.833 1082.03 258.833ZM1200.9 193.144V278H1173.08V135.085H1199.79V158.346H1201.55C1204.84 150.779 1209.99 144.7 1217 140.11C1224.07 135.52 1232.97 133.225 1243.7 133.225C1253.44 133.225 1261.97 135.272 1269.29 139.365C1276.61 143.397 1282.28 149.414 1286.32 157.416C1290.35 165.418 1292.36 175.311 1292.36 187.097V278H1264.54V190.446C1264.54 180.087 1261.85 171.993 1256.45 166.162C1251.05 160.269 1243.64 157.323 1234.21 157.323C1227.76 157.323 1222.02 158.718 1217 161.51C1212.04 164.301 1208.1 168.395 1205.18 173.791C1202.33 179.126 1200.9 185.577 1200.9 193.144ZM1337.52 279.768C1332.44 279.768 1328.06 277.969 1324.4 274.371C1320.74 270.712 1318.91 266.308 1318.91 261.159C1318.91 256.073 1320.74 251.731 1324.4 248.133C1328.06 244.473 1332.44 242.644 1337.52 242.644C1342.61 242.644 1346.98 244.473 1350.64 248.133C1354.3 251.731 1356.13 256.073 1356.13 261.159C1356.13 264.571 1355.26 267.703 1353.53 270.557C1351.85 273.348 1349.62 275.581 1346.83 277.256C1344.04 278.93 1340.93 279.768 1337.52 279.768ZM1490.01 169.977L1464.79 174.443C1463.74 171.217 1462.06 168.147 1459.77 165.231C1457.54 162.316 1454.5 159.928 1450.65 158.067C1446.8 156.206 1442 155.276 1436.23 155.276C1428.35 155.276 1421.78 157.044 1416.5 160.579C1411.23 164.053 1408.59 168.55 1408.59 174.071C1408.59 178.847 1410.36 182.693 1413.9 185.608C1417.43 188.523 1423.14 190.911 1431.02 192.772L1453.72 197.983C1466.87 201.022 1476.67 205.705 1483.12 212.032C1489.57 218.359 1492.8 226.578 1492.8 236.689C1492.8 245.249 1490.32 252.878 1485.36 259.577C1480.46 266.215 1473.6 271.425 1464.79 275.209C1456.05 278.992 1445.91 280.884 1434.37 280.884C1418.36 280.884 1405.31 277.473 1395.2 270.65C1385.09 263.764 1378.88 253.995 1376.59 241.341L1403.48 237.247C1405.15 244.256 1408.59 249.56 1413.81 253.157C1419.02 256.693 1425.81 258.461 1434.18 258.461C1443.3 258.461 1450.59 256.569 1456.05 252.785C1461.51 248.939 1464.23 244.256 1464.23 238.736C1464.23 234.27 1462.56 230.517 1459.21 227.477C1455.92 224.438 1450.87 222.143 1444.04 220.592L1419.85 215.289C1406.52 212.249 1396.65 207.411 1390.27 200.774C1383.94 194.137 1380.78 185.732 1380.78 175.559C1380.78 167.123 1383.13 159.742 1387.85 153.415C1392.56 147.088 1399.07 142.157 1407.39 138.621C1415.7 135.023 1425.22 133.225 1435.95 133.225C1451.39 133.225 1463.55 136.574 1472.42 143.273C1481.29 149.91 1487.15 158.811 1490.01 169.977ZM1540.73 193.144V278H1512.91V87.4473H1540.35V158.346H1542.12C1545.47 150.655 1550.59 144.545 1557.47 140.017C1564.36 135.489 1573.35 133.225 1584.46 133.225C1594.26 133.225 1602.82 135.241 1610.14 139.272C1617.52 143.304 1623.23 149.321 1627.26 157.323C1631.35 165.262 1633.4 175.187 1633.4 187.097V278H1605.58V190.446C1605.58 179.963 1602.88 171.838 1597.48 166.069C1592.09 160.238 1584.58 157.323 1574.97 157.323C1568.39 157.323 1562.5 158.718 1557.29 161.51C1552.14 164.301 1548.08 168.395 1545.1 173.791C1542.18 179.126 1540.73 185.577 1540.73 193.144Z" fill="#00FF92" fill-opacity="0.9"/>
<path d="M685.5 405V340.1H665.5V331.9H714.5V340.1H694.5V405H685.5ZM749.961 406C745.628 406 741.828 405.133 738.561 403.4C735.361 401.667 732.861 399.233 731.061 396.1C729.328 392.9 728.461 389.2 728.461 385V370C728.461 365.733 729.328 362.033 731.061 358.9C732.861 355.767 735.361 353.333 738.561 351.6C741.828 349.867 745.628 349 749.961 349C754.294 349 758.061 349.867 761.261 351.6C764.528 353.333 767.028 355.767 768.761 358.9C770.561 362.033 771.461 365.733 771.461 370V379.7H737.261V385C737.261 389.333 738.361 392.667 740.561 395C742.761 397.267 745.894 398.4 749.961 398.4C753.428 398.4 756.228 397.8 758.361 396.6C760.494 395.333 761.794 393.467 762.261 391H771.261C770.661 395.6 768.394 399.267 764.461 402C760.594 404.667 755.761 406 749.961 406ZM762.661 373.7V370C762.661 365.667 761.561 362.333 759.361 360C757.228 357.667 754.094 356.5 749.961 356.5C745.894 356.5 742.761 357.667 740.561 360C738.361 362.333 737.261 365.667 737.261 370V372.9H763.361L762.661 373.7ZM791.022 405V350H799.822V360.5H801.922L799.022 367C799.022 361.067 800.289 356.6 802.822 353.6C805.422 350.533 809.255 349 814.322 349C820.122 349 824.722 350.833 828.122 354.5C831.589 358.1 833.322 363 833.322 369.2V372.5H824.322V370C824.322 365.667 823.255 362.367 821.122 360.1C819.055 357.767 816.089 356.6 812.222 356.6C808.422 356.6 805.422 357.767 803.222 360.1C801.089 362.433 800.022 365.733 800.022 370V405H791.022ZM846.483 405V350H854.383V356.6H856.183L854.783 359C854.783 355.933 855.583 353.5 857.183 351.7C858.849 349.9 861.083 349 863.883 349C866.949 349 869.316 350.133 870.983 352.4C872.649 354.667 873.483 357.867 873.483 362L870.783 356.6H874.983L873.083 359C873.083 355.933 873.916 353.5 875.583 351.7C877.316 349.9 879.583 349 882.383 349C885.849 349 888.516 350.3 890.383 352.9C892.316 355.5 893.283 358.933 893.283 363.2V405H884.983V363.1C884.983 360.833 884.483 359.067 883.483 357.8C882.549 356.533 881.149 355.9 879.283 355.9C877.483 355.9 876.049 356.533 874.983 357.8C873.983 359 873.483 360.733 873.483 363V405H866.283V363.1C866.283 360.767 865.749 359 864.683 357.8C863.683 356.533 862.249 355.9 860.383 355.9C858.516 355.9 857.116 356.533 856.183 357.8C855.249 359 854.783 360.733 854.783 363V405H846.483ZM908.344 405V396.8H927.844V358.2H910.844V350H936.844V396.8H955.344V405H908.344ZM931.344 340.1C929.144 340.1 927.41 339.533 926.144 338.4C924.877 337.267 924.244 335.733 924.244 333.8C924.244 331.8 924.877 330.233 926.144 329.1C927.41 327.9 929.144 327.3 931.344 327.3C933.544 327.3 935.277 327.9 936.544 329.1C937.81 330.233 938.444 331.8 938.444 333.8C938.444 335.733 937.81 337.267 936.544 338.4C935.277 339.533 933.544 340.1 931.344 340.1ZM969.005 405V350H978.005V360.5H979.905L978.005 362.6C978.005 358.267 979.305 354.933 981.905 352.6C984.505 350.2 988.105 349 992.705 349C998.238 349 1002.64 350.7 1005.9 354.1C1009.17 357.5 1010.8 362.133 1010.8 368V405H1001.8V369C1001.8 365.067 1000.74 362.067 998.605 360C996.538 357.867 993.705 356.8 990.105 356.8C986.371 356.8 983.405 357.933 981.205 360.2C979.071 362.467 978.005 365.733 978.005 370V405H969.005ZM1044.97 406C1039.17 406 1034.6 404.533 1031.27 401.6C1027.93 398.6 1026.27 394.567 1026.27 389.5C1026.27 384.367 1027.93 380.333 1031.27 377.4C1034.6 374.467 1039.1 373 1044.77 373H1061.77V367.5C1061.77 364.1 1060.73 361.5 1058.67 359.7C1056.67 357.833 1053.8 356.9 1050.07 356.9C1046.8 356.9 1044.07 357.6 1041.87 359C1039.67 360.333 1038.4 362.167 1038.07 364.5H1029.07C1029.67 359.767 1031.9 356 1035.77 353.2C1039.63 350.4 1044.47 349 1050.27 349C1056.6 349 1061.6 350.633 1065.27 353.9C1068.93 357.167 1070.77 361.6 1070.77 367.2V405H1061.97V394.5H1060.47L1061.97 393C1061.97 397 1060.4 400.167 1057.27 402.5C1054.2 404.833 1050.1 406 1044.97 406ZM1047.17 398.9C1051.43 398.9 1054.93 397.833 1057.67 395.7C1060.4 393.567 1061.77 390.833 1061.77 387.5V379.7H1044.97C1041.97 379.7 1039.6 380.533 1037.87 382.2C1036.13 383.867 1035.27 386.133 1035.27 389C1035.27 392.067 1036.3 394.5 1038.37 396.3C1040.5 398.033 1043.43 398.9 1047.17 398.9ZM1117.23 405C1114.03 405 1111.23 404.367 1108.83 403.1C1106.43 401.833 1104.56 400.033 1103.23 397.7C1101.89 395.367 1101.23 392.633 1101.23 389.5V340.2H1082.73V332H1110.23V389.5C1110.23 391.767 1110.86 393.567 1112.13 394.9C1113.39 396.167 1115.09 396.8 1117.23 396.8H1134.73V405H1117.23ZM1235.65 405C1230.92 405 1227.22 403.733 1224.55 401.2C1221.95 398.667 1220.65 395.1 1220.65 390.5V358.2H1205.15V350H1220.65V334.5H1229.65V350H1251.65V358.2H1229.65V390.5C1229.65 394.7 1231.65 396.8 1235.65 396.8H1250.65V405H1235.65ZM1268.81 405V332H1277.81V350V360.5H1279.71L1277.81 362.6C1277.81 358.267 1279.11 354.933 1281.71 352.6C1284.31 350.2 1287.91 349 1292.51 349C1298.04 349 1302.44 350.7 1305.71 354.1C1308.98 357.5 1310.61 362.133 1310.61 368V405H1301.61V369C1301.61 365.067 1300.54 362.033 1298.41 359.9C1296.34 357.7 1293.51 356.6 1289.91 356.6C1286.18 356.6 1283.21 357.767 1281.01 360.1C1278.88 362.433 1277.81 365.733 1277.81 370V405H1268.81ZM1344.77 406C1338.97 406 1334.4 404.533 1331.07 401.6C1327.74 398.6 1326.07 394.567 1326.07 389.5C1326.07 384.367 1327.74 380.333 1331.07 377.4C1334.4 374.467 1338.9 373 1344.57 373H1361.57V367.5C1361.57 364.1 1360.54 361.5 1358.47 359.7C1356.47 357.833 1353.6 356.9 1349.87 356.9C1346.6 356.9 1343.87 357.6 1341.67 359C1339.47 360.333 1338.2 362.167 1337.87 364.5H1328.87C1329.47 359.767 1331.7 356 1335.57 353.2C1339.44 350.4 1344.27 349 1350.07 349C1356.4 349 1361.4 350.633 1365.07 353.9C1368.74 357.167 1370.57 361.6 1370.57 367.2V405H1361.77V394.5H1360.27L1361.77 393C1361.77 397 1360.2 400.167 1357.07 402.5C1354 404.833 1349.9 406 1344.77 406ZM1346.97 398.9C1351.24 398.9 1354.74 397.833 1357.47 395.7C1360.2 393.567 1361.57 390.833 1361.57 387.5V379.7H1344.77C1341.77 379.7 1339.4 380.533 1337.67 382.2C1335.94 383.867 1335.07 386.133 1335.07 389C1335.07 392.067 1336.1 394.5 1338.17 396.3C1340.3 398.033 1343.24 398.9 1346.97 398.9ZM1415.53 405C1410.8 405 1407.1 403.733 1404.43 401.2C1401.83 398.667 1400.53 395.1 1400.53 390.5V358.2H1385.03V350H1400.53V334.5H1409.53V350H1431.53V358.2H1409.53V390.5C1409.53 394.7 1411.53 396.8 1415.53 396.8H1430.53V405H1415.53ZM1517.25 423L1525.35 401.6L1504.95 350H1514.95L1527.75 384C1528.22 385.133 1528.65 386.5 1529.05 388.1C1529.45 389.633 1529.79 390.933 1530.05 392C1530.32 390.933 1530.65 389.633 1531.05 388.1C1531.45 386.5 1531.85 385.133 1532.25 384L1544.25 350H1553.95L1526.85 423H1517.25ZM1589.41 405.8C1585.01 405.8 1581.21 404.967 1578.01 403.3C1574.81 401.633 1572.31 399.233 1570.51 396.1C1568.78 392.9 1567.91 389.133 1567.91 384.8V370.2C1567.91 365.8 1568.78 362.033 1570.51 358.9C1572.31 355.767 1574.81 353.367 1578.01 351.7C1581.21 350.033 1585.01 349.2 1589.41 349.2C1593.81 349.2 1597.61 350.033 1600.81 351.7C1604.01 353.367 1606.48 355.767 1608.21 358.9C1610.01 362.033 1610.91 365.767 1610.91 370.1V384.8C1610.91 389.133 1610.01 392.9 1608.21 396.1C1606.48 399.233 1604.01 401.633 1600.81 403.3C1597.61 404.967 1593.81 405.8 1589.41 405.8ZM1589.41 397.8C1593.35 397.8 1596.41 396.7 1598.61 394.5C1600.81 392.3 1601.91 389.067 1601.91 384.8V370.2C1601.91 365.933 1600.81 362.7 1598.61 360.5C1596.41 358.3 1593.35 357.2 1589.41 357.2C1585.55 357.2 1582.48 358.3 1580.21 360.5C1578.01 362.7 1576.91 365.933 1576.91 370.2V384.8C1576.91 389.067 1578.01 392.3 1580.21 394.5C1582.48 396.7 1585.55 397.8 1589.41 397.8ZM1649.28 406C1642.94 406 1637.88 404.133 1634.07 400.4C1630.28 396.6 1628.38 391.467 1628.38 385V350H1637.38V385C1637.38 389.133 1638.44 392.367 1640.58 394.7C1642.71 396.967 1645.61 398.1 1649.28 398.1C1653.01 398.1 1655.94 396.967 1658.08 394.7C1660.28 392.367 1661.38 389.133 1661.38 385V350H1670.38V385C1670.38 391.467 1668.44 396.6 1664.58 400.4C1660.71 404.133 1655.61 406 1649.28 406ZM1769.3 405.8C1764.9 405.8 1761.1 404.967 1757.9 403.3C1754.7 401.633 1752.2 399.233 1750.4 396.1C1748.66 392.9 1747.8 389.133 1747.8 384.8V370.2C1747.8 365.8 1748.66 362.033 1750.4 358.9C1752.2 355.767 1754.7 353.367 1757.9 351.7C1761.1 350.033 1764.9 349.2 1769.3 349.2C1773.7 349.2 1777.5 350.033 1780.7 351.7C1783.9 353.367 1786.36 355.767 1788.1 358.9C1789.9 362.033 1790.8 365.767 1790.8 370.1V384.8C1790.8 389.133 1789.9 392.9 1788.1 396.1C1786.36 399.233 1783.9 401.633 1780.7 403.3C1777.5 404.967 1773.7 405.8 1769.3 405.8ZM1769.3 397.8C1773.23 397.8 1776.3 396.7 1778.5 394.5C1780.7 392.3 1781.8 389.067 1781.8 384.8V370.2C1781.8 365.933 1780.7 362.7 1778.5 360.5C1776.3 358.3 1773.23 357.2 1769.3 357.2C1765.43 357.2 1762.36 358.3 1760.1 360.5C1757.9 362.7 1756.8 365.933 1756.8 370.2V384.8C1756.8 389.067 1757.9 392.3 1760.1 394.5C1762.36 396.7 1765.43 397.8 1769.3 397.8ZM1811.56 405L1802.76 350H1810.76L1816.26 389C1816.46 390.467 1816.66 392.067 1816.86 393.8C1817.12 395.467 1817.32 396.867 1817.46 398C1817.59 396.867 1817.79 395.467 1818.06 393.8C1818.39 392.067 1818.66 390.467 1818.86 389L1824.96 350H1833.56L1839.66 389C1839.86 390.467 1840.09 392.067 1840.36 393.8C1840.69 395.467 1840.92 396.867 1841.06 398C1841.19 396.867 1841.39 395.467 1841.66 393.8C1841.99 392.067 1842.26 390.467 1842.46 389L1848.16 350H1855.76L1846.56 405H1836.66L1830.76 367C1830.49 365.133 1830.19 363.267 1829.86 361.4C1829.52 359.533 1829.29 358.067 1829.16 357C1829.02 358.067 1828.82 359.533 1828.56 361.4C1828.29 363.267 1827.99 365.133 1827.66 367L1821.46 405H1811.56ZM1868.42 405V350H1877.42V360.5H1879.32L1877.42 362.6C1877.42 358.267 1878.72 354.933 1881.32 352.6C1883.92 350.2 1887.52 349 1892.12 349C1897.65 349 1902.05 350.7 1905.32 354.1C1908.59 357.5 1910.22 362.133 1910.22 368V405H1901.22V369C1901.22 365.067 1900.15 362.067 1898.02 360C1895.95 357.867 1893.12 356.8 1889.52 356.8C1885.79 356.8 1882.82 357.933 1880.62 360.2C1878.49 362.467 1877.42 365.733 1877.42 370V405H1868.42ZM1945.98 383.5L1943.88 344V332H1954.48V344L1952.38 383.5H1945.98ZM1947.68 405.5C1945.95 405.5 1944.51 404.933 1943.38 403.8C1942.25 402.667 1941.68 401.233 1941.68 399.5C1941.68 397.767 1942.25 396.333 1943.38 395.2C1944.51 394.067 1945.95 393.5 1947.68 393.5H1950.68C1952.61 393.5 1954.08 394.067 1955.08 395.2C1956.15 396.267 1956.68 397.667 1956.68 399.4C1956.68 401.133 1956.11 402.6 1954.98 403.8C1953.85 404.933 1952.41 405.5 1950.68 405.5H1947.68Z" fill="#00FF92" fill-opacity="0.75"/>
<defs>
<clipPath id="clip0_920_130">
<rect x="85" y="86" width="503.82" height="503.82" rx="63.9616" fill="white"/>
</clipPath>
</defs>
</svg>
