<svg width="1895" height="566" viewBox="0 0 1895 566" fill="none" xmlns="http://www.w3.org/2000/svg">
<g clip-path="url(#clip0_1000_190)">
<rect y="62" width="503.82" height="503.82" rx="63.9616" fill="#010B19"/>
<rect x="104.797" y="351.797" width="307.016" height="6.39616" rx="3.19808" fill="#00FF92"/>
<rect x="75.7734" y="404.438" width="307.016" height="6.39616" rx="3.19808" fill="#00FF92"/>
<rect x="124.477" y="457.086" width="307.016" height="6.39616" rx="3.19808" fill="#00FF92"/>
<path d="M88.2377 294.625L169.42 213.607L88.5658 132.917H140.063L221.409 213.607L140.227 294.625H88.2377Z" fill="#00FF92"/>
</g>
<path d="M595.935 254V63.4473H623.755V134.253H625.429C627.042 131.276 629.368 127.833 632.408 123.925C635.447 120.018 639.665 116.606 645.062 113.691C650.458 110.713 657.591 109.225 666.462 109.225C677.999 109.225 688.296 112.14 697.352 117.971C706.408 123.801 713.511 132.206 718.659 143.185C723.869 154.165 726.475 167.377 726.475 182.822C726.475 198.267 723.9 211.51 718.752 222.551C713.604 233.53 706.532 241.997 697.538 247.952C688.544 253.845 678.278 256.791 666.741 256.791C658.057 256.791 650.954 255.334 645.434 252.418C639.975 249.503 635.695 246.091 632.594 242.183C629.492 238.276 627.104 234.802 625.429 231.763H623.103V254H595.935ZM623.196 182.543C623.196 192.591 624.654 201.4 627.569 208.967C630.485 216.535 634.703 222.458 640.223 226.738C645.744 230.956 652.505 233.065 660.507 233.065C668.819 233.065 675.766 230.863 681.349 226.459C686.931 221.993 691.149 215.945 694.002 208.316C696.918 200.686 698.375 192.095 698.375 182.543C698.375 173.114 696.949 164.647 694.095 157.142C691.304 149.636 687.086 143.713 681.442 139.371C675.859 135.029 668.881 132.858 660.507 132.858C652.443 132.858 645.62 134.936 640.037 139.091C634.517 143.247 630.33 149.047 627.476 156.491C624.623 163.934 623.196 172.618 623.196 182.543ZM807.432 256.884C794.034 256.884 782.342 253.814 772.355 247.673C762.368 241.532 754.615 232.941 749.094 221.9C743.574 210.859 740.813 197.957 740.813 183.194C740.813 168.369 743.574 155.405 749.094 144.302C754.615 133.199 762.368 124.577 772.355 118.436C782.342 112.295 794.034 109.225 807.432 109.225C820.831 109.225 832.523 112.295 842.51 118.436C852.496 124.577 860.25 133.199 865.771 144.302C871.291 155.405 874.052 168.369 874.052 183.194C874.052 197.957 871.291 210.859 865.771 221.9C860.25 232.941 852.496 241.532 842.51 247.673C832.523 253.814 820.831 256.884 807.432 256.884ZM807.526 233.53C816.21 233.53 823.405 231.235 829.112 226.645C834.818 222.055 839.036 215.945 841.765 208.316C844.557 200.686 845.952 192.281 845.952 183.101C845.952 173.983 844.557 165.609 841.765 157.979C839.036 150.288 834.818 144.116 829.112 139.464C823.405 134.811 816.21 132.485 807.526 132.485C798.779 132.485 791.522 134.811 785.753 139.464C780.047 144.116 775.798 150.288 773.006 157.979C770.277 165.609 768.913 173.983 768.913 183.101C768.913 192.281 770.277 200.686 773.006 208.316C775.798 215.945 780.047 222.055 785.753 226.645C791.522 231.235 798.779 233.53 807.526 233.53ZM922.444 63.4473V254H894.624V63.4473H922.444ZM990.981 257.163C981.925 257.163 973.737 255.489 966.417 252.139C959.098 248.728 953.298 243.796 949.018 237.345C944.8 230.894 942.691 222.986 942.691 213.619C942.691 205.555 944.242 198.918 947.344 193.708C950.445 188.497 954.632 184.373 959.904 181.333C965.177 178.294 971.07 175.999 977.583 174.448C984.096 172.897 990.733 171.719 997.494 170.912C1006.05 169.92 1013 169.113 1018.34 168.493C1023.67 167.811 1027.55 166.725 1029.97 165.237C1032.39 163.748 1033.59 161.329 1033.59 157.979V157.328C1033.59 149.202 1031.3 142.906 1026.71 138.44C1022.18 133.974 1015.42 131.741 1006.43 131.741C997.06 131.741 989.678 133.819 984.282 137.975C978.947 142.069 975.257 146.628 973.21 151.652L947.064 145.698C950.166 137.014 954.694 130.004 960.649 124.67C966.666 119.273 973.582 115.365 981.397 112.946C989.213 110.465 997.432 109.225 1006.05 109.225C1011.76 109.225 1017.81 109.907 1024.2 111.272C1030.65 112.574 1036.67 114.993 1042.25 118.529C1047.89 122.065 1052.51 127.12 1056.11 133.695C1059.71 140.208 1061.51 148.675 1061.51 159.096V254H1034.34V234.461H1033.22C1031.42 238.059 1028.73 241.594 1025.13 245.068C1021.53 248.541 1016.91 251.426 1011.26 253.721C1005.62 256.016 998.859 257.163 990.981 257.163ZM997.029 234.833C1004.72 234.833 1011.3 233.313 1016.75 230.274C1022.27 227.235 1026.46 223.265 1029.31 218.364C1032.23 213.402 1033.69 208.099 1033.69 202.454V184.031C1032.7 185.024 1030.77 185.954 1027.92 186.823C1025.13 187.629 1021.93 188.342 1018.34 188.963C1014.74 189.521 1011.23 190.048 1007.82 190.544C1004.41 190.979 1001.56 191.351 999.262 191.661C993.865 192.343 988.934 193.491 984.468 195.104C980.064 196.716 976.528 199.042 973.861 202.082C971.256 205.059 969.953 209.029 969.953 213.991C969.953 220.877 972.496 226.087 977.583 229.623C982.669 233.096 989.151 234.833 997.029 234.833ZM1115.9 169.144V254H1088.08V111.085H1114.79V134.346H1116.55C1119.84 126.779 1124.99 120.7 1132 116.11C1139.07 111.52 1147.97 109.225 1158.7 109.225C1168.44 109.225 1176.97 111.272 1184.29 115.365C1191.61 119.397 1197.28 125.414 1201.32 133.416C1205.35 141.418 1207.36 151.311 1207.36 163.097V254H1179.54V166.446C1179.54 156.087 1176.85 147.993 1171.45 142.162C1166.05 136.269 1158.64 133.323 1149.21 133.323C1142.76 133.323 1137.02 134.718 1132 137.51C1127.04 140.301 1123.1 144.395 1120.18 149.791C1117.33 155.126 1115.9 161.577 1115.9 169.144ZM1252.52 255.768C1247.44 255.768 1243.06 253.969 1239.4 250.371C1235.74 246.712 1233.91 242.308 1233.91 237.159C1233.91 232.073 1235.74 227.731 1239.4 224.133C1243.06 220.473 1247.44 218.644 1252.52 218.644C1257.61 218.644 1261.98 220.473 1265.64 224.133C1269.3 227.731 1271.13 232.073 1271.13 237.159C1271.13 240.571 1270.26 243.703 1268.53 246.557C1266.85 249.348 1264.62 251.581 1261.83 253.256C1259.04 254.93 1255.93 255.768 1252.52 255.768ZM1405.01 145.977L1379.79 150.443C1378.74 147.217 1377.06 144.147 1374.77 141.231C1372.54 138.316 1369.5 135.928 1365.65 134.067C1361.8 132.206 1357 131.276 1351.23 131.276C1343.35 131.276 1336.78 133.044 1331.5 136.579C1326.23 140.053 1323.59 144.55 1323.59 150.071C1323.59 154.847 1325.36 158.693 1328.9 161.608C1332.43 164.523 1338.14 166.911 1346.02 168.772L1368.72 173.983C1381.87 177.022 1391.67 181.705 1398.12 188.032C1404.57 194.359 1407.8 202.578 1407.8 212.689C1407.8 221.249 1405.32 228.878 1400.36 235.577C1395.46 242.215 1388.6 247.425 1379.79 251.209C1371.05 254.992 1360.91 256.884 1349.37 256.884C1333.36 256.884 1320.31 253.473 1310.2 246.65C1300.09 239.764 1293.88 229.995 1291.59 217.341L1318.48 213.247C1320.15 220.256 1323.59 225.56 1328.81 229.157C1334.02 232.693 1340.81 234.461 1349.18 234.461C1358.3 234.461 1365.59 232.569 1371.05 228.785C1376.51 224.939 1379.23 220.256 1379.23 214.736C1379.23 210.27 1377.56 206.517 1374.21 203.477C1370.92 200.438 1365.87 198.143 1359.04 196.592L1334.85 191.289C1321.52 188.249 1311.65 183.411 1305.27 176.774C1298.94 170.137 1295.78 161.732 1295.78 151.559C1295.78 143.123 1298.13 135.742 1302.85 129.415C1307.56 123.088 1314.07 118.157 1322.39 114.621C1330.7 111.023 1340.22 109.225 1350.95 109.225C1366.39 109.225 1378.55 112.574 1387.42 119.273C1396.29 125.91 1402.15 134.811 1405.01 145.977ZM1455.73 169.144V254H1427.91V63.4473H1455.35V134.346H1457.12C1460.47 126.655 1465.59 120.545 1472.47 116.017C1479.36 111.489 1488.35 109.225 1499.46 109.225C1509.26 109.225 1517.82 111.241 1525.14 115.272C1532.52 119.304 1538.23 125.321 1542.26 133.323C1546.35 141.262 1548.4 151.187 1548.4 163.097V254H1520.58V166.446C1520.58 155.963 1517.88 147.838 1512.48 142.069C1507.09 136.238 1499.58 133.323 1489.97 133.323C1483.39 133.323 1477.5 134.718 1472.29 137.51C1467.14 140.301 1463.08 144.395 1460.1 149.791C1457.18 155.126 1455.73 161.577 1455.73 169.144Z" fill="url(#paint0_linear_1000_190)" fill-opacity="0.9"/>
<path d="M600.5 381V316.1H580.5V307.9H629.5V316.1H609.5V381H600.5ZM664.961 382C660.628 382 656.828 381.133 653.561 379.4C650.361 377.667 647.861 375.233 646.061 372.1C644.328 368.9 643.461 365.2 643.461 361V346C643.461 341.733 644.328 338.033 646.061 334.9C647.861 331.767 650.361 329.333 653.561 327.6C656.828 325.867 660.628 325 664.961 325C669.294 325 673.061 325.867 676.261 327.6C679.528 329.333 682.028 331.767 683.761 334.9C685.561 338.033 686.461 341.733 686.461 346V355.7H652.261V361C652.261 365.333 653.361 368.667 655.561 371C657.761 373.267 660.894 374.4 664.961 374.4C668.428 374.4 671.228 373.8 673.361 372.6C675.494 371.333 676.794 369.467 677.261 367H686.261C685.661 371.6 683.394 375.267 679.461 378C675.594 380.667 670.761 382 664.961 382ZM677.661 349.7V346C677.661 341.667 676.561 338.333 674.361 336C672.228 333.667 669.094 332.5 664.961 332.5C660.894 332.5 657.761 333.667 655.561 336C653.361 338.333 652.261 341.667 652.261 346V348.9H678.361L677.661 349.7ZM706.022 381V326H714.822V336.5H716.922L714.022 343C714.022 337.067 715.289 332.6 717.822 329.6C720.422 326.533 724.255 325 729.322 325C735.122 325 739.722 326.833 743.122 330.5C746.589 334.1 748.322 339 748.322 345.2V348.5H739.322V346C739.322 341.667 738.255 338.367 736.122 336.1C734.055 333.767 731.089 332.6 727.222 332.6C723.422 332.6 720.422 333.767 718.222 336.1C716.089 338.433 715.022 341.733 715.022 346V381H706.022ZM761.483 381V326H769.383V332.6H771.183L769.783 335C769.783 331.933 770.583 329.5 772.183 327.7C773.849 325.9 776.083 325 778.883 325C781.949 325 784.316 326.133 785.983 328.4C787.649 330.667 788.483 333.867 788.483 338L785.783 332.6H789.983L788.083 335C788.083 331.933 788.916 329.5 790.583 327.7C792.316 325.9 794.583 325 797.383 325C800.849 325 803.516 326.3 805.383 328.9C807.316 331.5 808.283 334.933 808.283 339.2V381H799.983V339.1C799.983 336.833 799.483 335.067 798.483 333.8C797.549 332.533 796.149 331.9 794.283 331.9C792.483 331.9 791.049 332.533 789.983 333.8C788.983 335 788.483 336.733 788.483 339V381H781.283V339.1C781.283 336.767 780.749 335 779.683 333.8C778.683 332.533 777.249 331.9 775.383 331.9C773.516 331.9 772.116 332.533 771.183 333.8C770.249 335 769.783 336.733 769.783 339V381H761.483ZM823.344 381V372.8H842.844V334.2H825.844V326H851.844V372.8H870.344V381H823.344ZM846.344 316.1C844.144 316.1 842.41 315.533 841.144 314.4C839.877 313.267 839.244 311.733 839.244 309.8C839.244 307.8 839.877 306.233 841.144 305.1C842.41 303.9 844.144 303.3 846.344 303.3C848.544 303.3 850.277 303.9 851.544 305.1C852.81 306.233 853.444 307.8 853.444 309.8C853.444 311.733 852.81 313.267 851.544 314.4C850.277 315.533 848.544 316.1 846.344 316.1ZM884.005 381V326H893.005V336.5H894.905L893.005 338.6C893.005 334.267 894.305 330.933 896.905 328.6C899.505 326.2 903.105 325 907.705 325C913.238 325 917.638 326.7 920.905 330.1C924.171 333.5 925.805 338.133 925.805 344V381H916.805V345C916.805 341.067 915.738 338.067 913.605 336C911.538 333.867 908.705 332.8 905.105 332.8C901.371 332.8 898.405 333.933 896.205 336.2C894.071 338.467 893.005 341.733 893.005 346V381H884.005ZM959.966 382C954.166 382 949.599 380.533 946.266 377.6C942.932 374.6 941.266 370.567 941.266 365.5C941.266 360.367 942.932 356.333 946.266 353.4C949.599 350.467 954.099 349 959.766 349H976.766V343.5C976.766 340.1 975.732 337.5 973.666 335.7C971.666 333.833 968.799 332.9 965.066 332.9C961.799 332.9 959.066 333.6 956.866 335C954.666 336.333 953.399 338.167 953.066 340.5H944.066C944.666 335.767 946.899 332 950.766 329.2C954.632 326.4 959.466 325 965.266 325C971.599 325 976.599 326.633 980.266 329.9C983.932 333.167 985.766 337.6 985.766 343.2V381H976.966V370.5H975.466L976.966 369C976.966 373 975.399 376.167 972.266 378.5C969.199 380.833 965.099 382 959.966 382ZM962.166 374.9C966.432 374.9 969.932 373.833 972.666 371.7C975.399 369.567 976.766 366.833 976.766 363.5V355.7H959.966C956.966 355.7 954.599 356.533 952.866 358.2C951.132 359.867 950.266 362.133 950.266 365C950.266 368.067 951.299 370.5 953.366 372.3C955.499 374.033 958.432 374.9 962.166 374.9ZM1032.23 381C1029.03 381 1026.23 380.367 1023.83 379.1C1021.43 377.833 1019.56 376.033 1018.23 373.7C1016.89 371.367 1016.23 368.633 1016.23 365.5V316.2H997.727V308H1025.23V365.5C1025.23 367.767 1025.86 369.567 1027.13 370.9C1028.39 372.167 1030.09 372.8 1032.23 372.8H1049.73V381H1032.23ZM1150.65 381C1145.92 381 1142.22 379.733 1139.55 377.2C1136.95 374.667 1135.65 371.1 1135.65 366.5V334.2H1120.15V326H1135.65V310.5H1144.65V326H1166.65V334.2H1144.65V366.5C1144.65 370.7 1146.65 372.8 1150.65 372.8H1165.65V381H1150.65ZM1183.81 381V308H1192.81V326V336.5H1194.71L1192.81 338.6C1192.81 334.267 1194.11 330.933 1196.71 328.6C1199.31 326.2 1202.91 325 1207.51 325C1213.04 325 1217.44 326.7 1220.71 330.1C1223.98 333.5 1225.61 338.133 1225.61 344V381H1216.61V345C1216.61 341.067 1215.54 338.033 1213.41 335.9C1211.34 333.7 1208.51 332.6 1204.91 332.6C1201.18 332.6 1198.21 333.767 1196.01 336.1C1193.88 338.433 1192.81 341.733 1192.81 346V381H1183.81ZM1259.77 382C1253.97 382 1249.4 380.533 1246.07 377.6C1242.74 374.6 1241.07 370.567 1241.07 365.5C1241.07 360.367 1242.74 356.333 1246.07 353.4C1249.4 350.467 1253.9 349 1259.57 349H1276.57V343.5C1276.57 340.1 1275.54 337.5 1273.47 335.7C1271.47 333.833 1268.6 332.9 1264.87 332.9C1261.6 332.9 1258.87 333.6 1256.67 335C1254.47 336.333 1253.2 338.167 1252.87 340.5H1243.87C1244.47 335.767 1246.7 332 1250.57 329.2C1254.44 326.4 1259.27 325 1265.07 325C1271.4 325 1276.4 326.633 1280.07 329.9C1283.74 333.167 1285.57 337.6 1285.57 343.2V381H1276.77V370.5H1275.27L1276.77 369C1276.77 373 1275.2 376.167 1272.07 378.5C1269 380.833 1264.9 382 1259.77 382ZM1261.97 374.9C1266.24 374.9 1269.74 373.833 1272.47 371.7C1275.2 369.567 1276.57 366.833 1276.57 363.5V355.7H1259.77C1256.77 355.7 1254.4 356.533 1252.67 358.2C1250.94 359.867 1250.07 362.133 1250.07 365C1250.07 368.067 1251.1 370.5 1253.17 372.3C1255.3 374.033 1258.24 374.9 1261.97 374.9ZM1330.53 381C1325.8 381 1322.1 379.733 1319.43 377.2C1316.83 374.667 1315.53 371.1 1315.53 366.5V334.2H1300.03V326H1315.53V310.5H1324.53V326H1346.53V334.2H1324.53V366.5C1324.53 370.7 1326.53 372.8 1330.53 372.8H1345.53V381H1330.53ZM1432.25 399L1440.35 377.6L1419.95 326H1429.95L1442.75 360C1443.22 361.133 1443.65 362.5 1444.05 364.1C1444.45 365.633 1444.79 366.933 1445.05 368C1445.32 366.933 1445.65 365.633 1446.05 364.1C1446.45 362.5 1446.85 361.133 1447.25 360L1459.25 326H1468.95L1441.85 399H1432.25ZM1504.41 381.8C1500.01 381.8 1496.21 380.967 1493.01 379.3C1489.81 377.633 1487.31 375.233 1485.51 372.1C1483.78 368.9 1482.91 365.133 1482.91 360.8V346.2C1482.91 341.8 1483.78 338.033 1485.51 334.9C1487.31 331.767 1489.81 329.367 1493.01 327.7C1496.21 326.033 1500.01 325.2 1504.41 325.2C1508.81 325.2 1512.61 326.033 1515.81 327.7C1519.01 329.367 1521.48 331.767 1523.21 334.9C1525.01 338.033 1525.91 341.767 1525.91 346.1V360.8C1525.91 365.133 1525.01 368.9 1523.21 372.1C1521.48 375.233 1519.01 377.633 1515.81 379.3C1512.61 380.967 1508.81 381.8 1504.41 381.8ZM1504.41 373.8C1508.35 373.8 1511.41 372.7 1513.61 370.5C1515.81 368.3 1516.91 365.067 1516.91 360.8V346.2C1516.91 341.933 1515.81 338.7 1513.61 336.5C1511.41 334.3 1508.35 333.2 1504.41 333.2C1500.55 333.2 1497.48 334.3 1495.21 336.5C1493.01 338.7 1491.91 341.933 1491.91 346.2V360.8C1491.91 365.067 1493.01 368.3 1495.21 370.5C1497.48 372.7 1500.55 373.8 1504.41 373.8ZM1564.28 382C1557.94 382 1552.88 380.133 1549.07 376.4C1545.28 372.6 1543.38 367.467 1543.38 361V326H1552.38V361C1552.38 365.133 1553.44 368.367 1555.58 370.7C1557.71 372.967 1560.61 374.1 1564.28 374.1C1568.01 374.1 1570.94 372.967 1573.08 370.7C1575.28 368.367 1576.38 365.133 1576.38 361V326H1585.38V361C1585.38 367.467 1583.44 372.6 1579.58 376.4C1575.71 380.133 1570.61 382 1564.28 382ZM1684.3 381.8C1679.9 381.8 1676.1 380.967 1672.9 379.3C1669.7 377.633 1667.2 375.233 1665.4 372.1C1663.66 368.9 1662.8 365.133 1662.8 360.8V346.2C1662.8 341.8 1663.66 338.033 1665.4 334.9C1667.2 331.767 1669.7 329.367 1672.9 327.7C1676.1 326.033 1679.9 325.2 1684.3 325.2C1688.7 325.2 1692.5 326.033 1695.7 327.7C1698.9 329.367 1701.36 331.767 1703.1 334.9C1704.9 338.033 1705.8 341.767 1705.8 346.1V360.8C1705.8 365.133 1704.9 368.9 1703.1 372.1C1701.36 375.233 1698.9 377.633 1695.7 379.3C1692.5 380.967 1688.7 381.8 1684.3 381.8ZM1684.3 373.8C1688.23 373.8 1691.3 372.7 1693.5 370.5C1695.7 368.3 1696.8 365.067 1696.8 360.8V346.2C1696.8 341.933 1695.7 338.7 1693.5 336.5C1691.3 334.3 1688.23 333.2 1684.3 333.2C1680.43 333.2 1677.36 334.3 1675.1 336.5C1672.9 338.7 1671.8 341.933 1671.8 346.2V360.8C1671.8 365.067 1672.9 368.3 1675.1 370.5C1677.36 372.7 1680.43 373.8 1684.3 373.8ZM1726.56 381L1717.76 326H1725.76L1731.26 365C1731.46 366.467 1731.66 368.067 1731.86 369.8C1732.12 371.467 1732.32 372.867 1732.46 374C1732.59 372.867 1732.79 371.467 1733.06 369.8C1733.39 368.067 1733.66 366.467 1733.86 365L1739.96 326H1748.56L1754.66 365C1754.86 366.467 1755.09 368.067 1755.36 369.8C1755.69 371.467 1755.92 372.867 1756.06 374C1756.19 372.867 1756.39 371.467 1756.66 369.8C1756.99 368.067 1757.26 366.467 1757.46 365L1763.16 326H1770.76L1761.56 381H1751.66L1745.76 343C1745.49 341.133 1745.19 339.267 1744.86 337.4C1744.52 335.533 1744.29 334.067 1744.16 333C1744.02 334.067 1743.82 335.533 1743.56 337.4C1743.29 339.267 1742.99 341.133 1742.66 343L1736.46 381H1726.56ZM1783.42 381V326H1792.42V336.5H1794.32L1792.42 338.6C1792.42 334.267 1793.72 330.933 1796.32 328.6C1798.92 326.2 1802.52 325 1807.12 325C1812.65 325 1817.05 326.7 1820.32 330.1C1823.59 333.5 1825.22 338.133 1825.22 344V381H1816.22V345C1816.22 341.067 1815.15 338.067 1813.02 336C1810.95 333.867 1808.12 332.8 1804.52 332.8C1800.79 332.8 1797.82 333.933 1795.62 336.2C1793.49 338.467 1792.42 341.733 1792.42 346V381H1783.42ZM1860.98 359.5L1858.88 320V308H1869.48V320L1867.38 359.5H1860.98ZM1862.68 381.5C1860.95 381.5 1859.51 380.933 1858.38 379.8C1857.25 378.667 1856.68 377.233 1856.68 375.5C1856.68 373.767 1857.25 372.333 1858.38 371.2C1859.51 370.067 1860.95 369.5 1862.68 369.5H1865.68C1867.61 369.5 1869.08 370.067 1870.08 371.2C1871.15 372.267 1871.68 373.667 1871.68 375.4C1871.68 377.133 1871.11 378.6 1869.98 379.8C1868.85 380.933 1867.41 381.5 1865.68 381.5H1862.68Z" fill="#00FF92" fill-opacity="0.75"/>
<defs>
<linearGradient id="paint0_linear_1000_190" x1="575" y1="158.5" x2="1567" y2="158.5" gradientUnits="userSpaceOnUse">
<stop stop-color="#00FF92"/>
<stop offset="0.5" stop-color="#03D77D"/>
<stop offset="1" stop-color="#00FF92"/>
</linearGradient>
<clipPath id="clip0_1000_190">
<rect y="62" width="503.82" height="503.82" rx="63.9616" fill="white"/>
</clipPath>
</defs>
</svg>
